<mxfile host="app.diagrams.net" agent="Mozilla/5.0 (Macintosh; Intel Mac OS X 10_15_7) AppleWebKit/537.36 (KHTML, like Gecko) Chrome/136.0.0.0 Safari/537.36" version="27.0.6">
  <diagram name="Page-1" id="b2P4CU3sjHduceIS6JFw">
    <mxGraphModel dx="830" dy="1080" grid="1" gridSize="10" guides="1" tooltips="1" connect="1" arrows="1" fold="1" page="1" pageScale="1" pageWidth="850" pageHeight="1100" math="0" shadow="0">
      <root>
        <mxCell id="0" />
        <mxCell id="1" parent="0" />
        <mxCell id="DiaGZn70FkOACVAMZfuO-1" value="" style="verticalAlign=top;align=left;spacingTop=8;spacingLeft=2;spacingRight=12;shape=cube;size=10;direction=south;fontStyle=4;html=1;whiteSpace=wrap;" parent="1" vertex="1">
          <mxGeometry x="60" y="290" width="120" height="120" as="geometry" />
        </mxCell>
        <mxCell id="DiaGZn70FkOACVAMZfuO-2" value="&lt;span style=&quot;color: rgb(0, 0, 0); font-style: normal; font-variant-ligatures: normal; font-variant-caps: normal; font-weight: 400; letter-spacing: normal; orphans: 2; text-indent: 0px; text-transform: none; widows: 2; word-spacing: 0px; -webkit-text-stroke-width: 0px; white-space: normal; background-color: rgb(251, 251, 251); float: none; display: inline !important;&quot;&gt;&lt;font style=&quot;font-size: 15px;&quot; face=&quot;Times New Roman&quot;&gt;alpha = 0.01&lt;/font&gt;&lt;/span&gt;&lt;div style=&quot;forced-color-adjust: none; color: rgb(0, 0, 0); font-style: normal; font-variant-ligatures: normal; font-variant-caps: normal; font-weight: 400; letter-spacing: normal; orphans: 2; text-indent: 0px; text-transform: none; widows: 2; word-spacing: 0px; -webkit-text-stroke-width: 0px; white-space: normal; background-color: rgb(251, 251, 251); text-decoration-thickness: initial; text-decoration-style: initial; text-decoration-color: initial;&quot;&gt;&lt;font style=&quot;font-size: 15px;&quot; face=&quot;Times New Roman&quot;&gt;threshold = 0.5&lt;/font&gt;&lt;/div&gt;&lt;div style=&quot;forced-color-adjust: none; color: rgb(0, 0, 0); font-style: normal; font-variant-ligatures: normal; font-variant-caps: normal; font-weight: 400; letter-spacing: normal; orphans: 2; text-indent: 0px; text-transform: none; widows: 2; word-spacing: 0px; -webkit-text-stroke-width: 0px; white-space: normal; background-color: rgb(251, 251, 251); text-decoration-thickness: initial; text-decoration-style: initial; text-decoration-color: initial;&quot;&gt;&lt;font face=&quot;Times New Roman&quot;&gt;&lt;span style=&quot;font-size: 15px;&quot;&gt;CItest = Gauss&lt;/span&gt;&lt;/font&gt;&lt;/div&gt;" style="text;whiteSpace=wrap;html=1;align=center;" parent="1" vertex="1">
          <mxGeometry x="69" y="238" width="110" height="50" as="geometry" />
        </mxCell>
        <mxCell id="DiaGZn70FkOACVAMZfuO-57" value="" style="group" parent="1" vertex="1" connectable="0">
          <mxGeometry x="64.5" y="309" width="107.5" height="110" as="geometry" />
        </mxCell>
        <mxCell id="DiaGZn70FkOACVAMZfuO-44" value="" style="ellipse;whiteSpace=wrap;html=1;aspect=fixed;" parent="DiaGZn70FkOACVAMZfuO-57" vertex="1">
          <mxGeometry y="58.66666666666667" width="19.691972195720325" height="19.691972195720325" as="geometry" />
        </mxCell>
        <mxCell id="DiaGZn70FkOACVAMZfuO-45" value="" style="ellipse;whiteSpace=wrap;html=1;aspect=fixed;" parent="DiaGZn70FkOACVAMZfuO-57" vertex="1">
          <mxGeometry x="45.6060606060606" y="36.66666666666668" width="19.691972195720325" height="19.691972195720325" as="geometry" />
        </mxCell>
        <mxCell id="DiaGZn70FkOACVAMZfuO-46" value="" style="ellipse;whiteSpace=wrap;html=1;aspect=fixed;" parent="DiaGZn70FkOACVAMZfuO-57" vertex="1">
          <mxGeometry x="77.12126482213439" y="71.73753623188406" width="19.691972195720325" height="19.691972195720325" as="geometry" />
        </mxCell>
        <mxCell id="DiaGZn70FkOACVAMZfuO-47" value="" style="ellipse;whiteSpace=wrap;html=1;aspect=fixed;" parent="DiaGZn70FkOACVAMZfuO-57" vertex="1">
          <mxGeometry x="13.030303030303033" width="19.691972195720325" height="19.691972195720325" as="geometry" />
        </mxCell>
        <mxCell id="DiaGZn70FkOACVAMZfuO-48" value="" style="ellipse;whiteSpace=wrap;html=1;aspect=fixed;" parent="DiaGZn70FkOACVAMZfuO-57" vertex="1">
          <mxGeometry x="81.43939393939395" width="19.691972195720325" height="19.691972195720325" as="geometry" />
        </mxCell>
        <mxCell id="DiaGZn70FkOACVAMZfuO-49" value="" style="endArrow=classic;html=1;rounded=0;exitX=1;exitY=0;exitDx=0;exitDy=0;entryX=0;entryY=1;entryDx=0;entryDy=0;startArrow=classic;startFill=1;" parent="DiaGZn70FkOACVAMZfuO-57" source="DiaGZn70FkOACVAMZfuO-45" target="DiaGZn70FkOACVAMZfuO-48" edge="1">
          <mxGeometry width="50" height="50" relative="1" as="geometry">
            <mxPoint x="58.63636363636364" y="73.33333333333336" as="sourcePoint" />
            <mxPoint x="91.2121212121212" y="36.66666666666668" as="targetPoint" />
          </mxGeometry>
        </mxCell>
        <mxCell id="DiaGZn70FkOACVAMZfuO-50" value="" style="endArrow=classic;html=1;rounded=0;exitX=0.5;exitY=0;exitDx=0;exitDy=0;entryX=0.5;entryY=1;entryDx=0;entryDy=0;" parent="DiaGZn70FkOACVAMZfuO-57" source="DiaGZn70FkOACVAMZfuO-46" target="DiaGZn70FkOACVAMZfuO-48" edge="1">
          <mxGeometry width="50" height="50" relative="1" as="geometry">
            <mxPoint x="58.63636363636364" y="73.33333333333336" as="sourcePoint" />
            <mxPoint x="91.2121212121212" y="36.66666666666668" as="targetPoint" />
          </mxGeometry>
        </mxCell>
        <mxCell id="DiaGZn70FkOACVAMZfuO-52" value="" style="endArrow=classic;html=1;rounded=0;exitX=0.975;exitY=0.325;exitDx=0;exitDy=0;entryX=0;entryY=0.5;entryDx=0;entryDy=0;exitPerimeter=0;" parent="DiaGZn70FkOACVAMZfuO-57" source="DiaGZn70FkOACVAMZfuO-44" target="DiaGZn70FkOACVAMZfuO-45" edge="1">
          <mxGeometry width="50" height="50" relative="1" as="geometry">
            <mxPoint x="52.12121212121213" y="80.66666666666669" as="sourcePoint" />
            <mxPoint x="84.6969696969697" y="44" as="targetPoint" />
          </mxGeometry>
        </mxCell>
        <mxCell id="DiaGZn70FkOACVAMZfuO-54" value="" style="endArrow=classic;html=1;rounded=0;exitX=0.5;exitY=1;exitDx=0;exitDy=0;entryX=0.5;entryY=0;entryDx=0;entryDy=0;" parent="DiaGZn70FkOACVAMZfuO-57" source="DiaGZn70FkOACVAMZfuO-47" target="DiaGZn70FkOACVAMZfuO-44" edge="1">
          <mxGeometry width="50" height="50" relative="1" as="geometry">
            <mxPoint x="52.12121212121213" y="80.66666666666669" as="sourcePoint" />
            <mxPoint x="84.6969696969697" y="44" as="targetPoint" />
          </mxGeometry>
        </mxCell>
        <mxCell id="DiaGZn70FkOACVAMZfuO-55" value="" style="endArrow=classic;html=1;rounded=0;exitX=1;exitY=1;exitDx=0;exitDy=0;entryX=0;entryY=0;entryDx=0;entryDy=0;" parent="DiaGZn70FkOACVAMZfuO-57" source="DiaGZn70FkOACVAMZfuO-47" target="DiaGZn70FkOACVAMZfuO-45" edge="1">
          <mxGeometry width="50" height="50" relative="1" as="geometry">
            <mxPoint x="52.12121212121213" y="80.66666666666669" as="sourcePoint" />
            <mxPoint x="84.6969696969697" y="44" as="targetPoint" />
          </mxGeometry>
        </mxCell>
        <mxCell id="DiaGZn70FkOACVAMZfuO-58" value="" style="endArrow=classic;html=1;rounded=0;entryX=0;entryY=0;entryDx=0;entryDy=0;exitX=1;exitY=1;exitDx=0;exitDy=0;" parent="DiaGZn70FkOACVAMZfuO-57" source="DiaGZn70FkOACVAMZfuO-45" target="DiaGZn70FkOACVAMZfuO-46" edge="1">
          <mxGeometry width="50" height="50" relative="1" as="geometry">
            <mxPoint x="88.80434782608695" as="sourcePoint" />
            <mxPoint x="112.17391304347828" y="-23.91304347826087" as="targetPoint" />
          </mxGeometry>
        </mxCell>
        <mxCell id="UDdJKhotG0nYN_Htrioi-1" value="" style="endArrow=classic;html=1;rounded=0;entryX=1;entryY=0.5;entryDx=0;entryDy=0;exitX=0;exitY=0.5;exitDx=0;exitDy=0;startArrow=classic;startFill=1;" parent="DiaGZn70FkOACVAMZfuO-57" edge="1">
          <mxGeometry width="50" height="50" relative="1" as="geometry">
            <mxPoint x="81.72000000000003" y="9.350000000000023" as="sourcePoint" />
            <mxPoint x="32.72000000000003" y="9.350000000000023" as="targetPoint" />
          </mxGeometry>
        </mxCell>
        <mxCell id="UDdJKhotG0nYN_Htrioi-2" value="" style="endArrow=classic;html=1;rounded=0;entryX=1;entryY=1;entryDx=0;entryDy=0;exitX=0;exitY=0.5;exitDx=0;exitDy=0;" parent="DiaGZn70FkOACVAMZfuO-57" edge="1">
          <mxGeometry width="50" height="50" relative="1" as="geometry">
            <mxPoint x="77.69" y="81.74000000000001" as="sourcePoint" />
            <mxPoint x="16.689999999999998" y="74.74000000000001" as="targetPoint" />
          </mxGeometry>
        </mxCell>
        <mxCell id="DiaGZn70FkOACVAMZfuO-102" value="" style="shape=curlyBracket;whiteSpace=wrap;html=1;rounded=1;flipH=1;labelPosition=right;verticalLabelPosition=middle;align=left;verticalAlign=middle;size=0.5;rotation=45;strokeWidth=1.5;" parent="1" vertex="1">
          <mxGeometry x="173.92" y="403" width="10" height="15" as="geometry" />
        </mxCell>
        <mxCell id="DiaGZn70FkOACVAMZfuO-103" value="&lt;font face=&quot;Times New Roman&quot;&gt;&lt;span style=&quot;font-size: 15px;&quot;&gt;Summary graph&amp;nbsp;&lt;/span&gt;&lt;/font&gt;&lt;div&gt;&lt;font face=&quot;Times New Roman&quot;&gt;&lt;span style=&quot;font-size: 15px;&quot;&gt;across bootstrap samples&lt;/span&gt;&lt;/font&gt;&lt;/div&gt;" style="text;html=1;align=center;verticalAlign=middle;resizable=0;points=[];autosize=1;strokeColor=none;fillColor=none;" parent="1" vertex="1">
          <mxGeometry x="119.80000000000001" y="407" width="170" height="50" as="geometry" />
        </mxCell>
        <mxCell id="DiaGZn70FkOACVAMZfuO-121" value="" style="verticalAlign=top;align=left;spacingTop=8;spacingLeft=2;spacingRight=12;shape=cube;size=10;direction=south;fontStyle=4;html=1;whiteSpace=wrap;" parent="1" vertex="1">
          <mxGeometry x="210" y="290" width="120" height="120" as="geometry" />
        </mxCell>
        <mxCell id="DiaGZn70FkOACVAMZfuO-122" value="&lt;span style=&quot;color: rgb(0, 0, 0); font-style: normal; font-variant-ligatures: normal; font-variant-caps: normal; font-weight: 400; letter-spacing: normal; orphans: 2; text-indent: 0px; text-transform: none; widows: 2; word-spacing: 0px; -webkit-text-stroke-width: 0px; white-space: normal; background-color: rgb(251, 251, 251); float: none; display: inline !important;&quot;&gt;&lt;font style=&quot;font-size: 15px;&quot; face=&quot;Times New Roman&quot;&gt;alpha = 0.01&lt;/font&gt;&lt;/span&gt;&lt;div style=&quot;forced-color-adjust: none; color: rgb(0, 0, 0); font-style: normal; font-variant-ligatures: normal; font-variant-caps: normal; font-weight: 400; letter-spacing: normal; orphans: 2; text-indent: 0px; text-transform: none; widows: 2; word-spacing: 0px; -webkit-text-stroke-width: 0px; white-space: normal; background-color: rgb(251, 251, 251); text-decoration-thickness: initial; text-decoration-style: initial; text-decoration-color: initial;&quot;&gt;&lt;font style=&quot;font-size: 15px;&quot; face=&quot;Times New Roman&quot;&gt;threshold = 0.6&lt;/font&gt;&lt;/div&gt;&lt;div style=&quot;forced-color-adjust: none; color: rgb(0, 0, 0); font-style: normal; font-variant-ligatures: normal; font-variant-caps: normal; font-weight: 400; letter-spacing: normal; orphans: 2; text-indent: 0px; text-transform: none; widows: 2; word-spacing: 0px; -webkit-text-stroke-width: 0px; white-space: normal; background-color: rgb(251, 251, 251); text-decoration-thickness: initial; text-decoration-style: initial; text-decoration-color: initial;&quot;&gt;&lt;span style=&quot;font-family: &amp;quot;Times New Roman&amp;quot;; font-size: 15px;&quot;&gt;CItest = Gauss&lt;/span&gt;&lt;/div&gt;" style="text;whiteSpace=wrap;html=1;align=center;" parent="1" vertex="1">
          <mxGeometry x="219" y="238.00000000000003" width="110" height="50" as="geometry" />
        </mxCell>
        <mxCell id="DiaGZn70FkOACVAMZfuO-123" value="" style="ellipse;whiteSpace=wrap;html=1;aspect=fixed;" parent="1" vertex="1">
          <mxGeometry x="214.5" y="367.66666666666674" width="19.691972195720325" height="19.691972195720325" as="geometry" />
        </mxCell>
        <mxCell id="DiaGZn70FkOACVAMZfuO-124" value="" style="ellipse;whiteSpace=wrap;html=1;aspect=fixed;" parent="1" vertex="1">
          <mxGeometry x="260.1060606060606" y="345.66666666666674" width="19.691972195720325" height="19.691972195720325" as="geometry" />
        </mxCell>
        <mxCell id="DiaGZn70FkOACVAMZfuO-125" value="" style="ellipse;whiteSpace=wrap;html=1;aspect=fixed;" parent="1" vertex="1">
          <mxGeometry x="291.6212648221344" y="380.73753623188406" width="19.691972195720325" height="19.691972195720325" as="geometry" />
        </mxCell>
        <mxCell id="DiaGZn70FkOACVAMZfuO-126" value="" style="ellipse;whiteSpace=wrap;html=1;aspect=fixed;" parent="1" vertex="1">
          <mxGeometry x="227.530303030303" y="309" width="19.691972195720325" height="19.691972195720325" as="geometry" />
        </mxCell>
        <mxCell id="DiaGZn70FkOACVAMZfuO-128" value="" style="ellipse;whiteSpace=wrap;html=1;aspect=fixed;" parent="1" vertex="1">
          <mxGeometry x="295.93939393939394" y="309" width="19.691972195720325" height="19.691972195720325" as="geometry" />
        </mxCell>
        <mxCell id="DiaGZn70FkOACVAMZfuO-129" value="" style="endArrow=classic;html=1;rounded=0;exitX=1;exitY=0;exitDx=0;exitDy=0;entryX=0;entryY=1;entryDx=0;entryDy=0;startArrow=classic;startFill=1;" parent="1" source="DiaGZn70FkOACVAMZfuO-124" target="DiaGZn70FkOACVAMZfuO-128" edge="1">
          <mxGeometry width="50" height="50" relative="1" as="geometry">
            <mxPoint x="273.1363636363636" y="382.33333333333337" as="sourcePoint" />
            <mxPoint x="305.7121212121212" y="345.66666666666674" as="targetPoint" />
          </mxGeometry>
        </mxCell>
        <mxCell id="DiaGZn70FkOACVAMZfuO-130" value="" style="endArrow=classic;html=1;rounded=0;exitX=0.5;exitY=0;exitDx=0;exitDy=0;entryX=0.5;entryY=1;entryDx=0;entryDy=0;endFill=1;startArrow=none;startFill=0;" parent="1" source="DiaGZn70FkOACVAMZfuO-125" target="DiaGZn70FkOACVAMZfuO-128" edge="1">
          <mxGeometry width="50" height="50" relative="1" as="geometry">
            <mxPoint x="273.1363636363636" y="382.33333333333337" as="sourcePoint" />
            <mxPoint x="305.7121212121212" y="345.66666666666674" as="targetPoint" />
          </mxGeometry>
        </mxCell>
        <mxCell id="DiaGZn70FkOACVAMZfuO-131" value="" style="endArrow=classic;html=1;rounded=0;entryX=1;entryY=1;entryDx=0;entryDy=0;exitX=0;exitY=0.5;exitDx=0;exitDy=0;" parent="1" source="DiaGZn70FkOACVAMZfuO-125" target="DiaGZn70FkOACVAMZfuO-123" edge="1">
          <mxGeometry width="50" height="50" relative="1" as="geometry">
            <mxPoint x="266.6212121212121" y="389.66666666666674" as="sourcePoint" />
            <mxPoint x="299.1969696969697" y="353" as="targetPoint" />
          </mxGeometry>
        </mxCell>
        <mxCell id="DiaGZn70FkOACVAMZfuO-134" value="" style="endArrow=classic;html=1;rounded=0;exitX=0.5;exitY=1;exitDx=0;exitDy=0;entryX=0.5;entryY=0;entryDx=0;entryDy=0;endFill=1;startArrow=none;startFill=0;" parent="1" source="DiaGZn70FkOACVAMZfuO-126" target="DiaGZn70FkOACVAMZfuO-123" edge="1">
          <mxGeometry width="50" height="50" relative="1" as="geometry">
            <mxPoint x="266.6212121212121" y="389.66666666666674" as="sourcePoint" />
            <mxPoint x="299.1969696969697" y="353" as="targetPoint" />
          </mxGeometry>
        </mxCell>
        <mxCell id="DiaGZn70FkOACVAMZfuO-135" value="" style="endArrow=classic;html=1;rounded=0;exitX=1;exitY=1;exitDx=0;exitDy=0;entryX=0;entryY=0;entryDx=0;entryDy=0;" parent="1" source="DiaGZn70FkOACVAMZfuO-126" target="DiaGZn70FkOACVAMZfuO-124" edge="1">
          <mxGeometry width="50" height="50" relative="1" as="geometry">
            <mxPoint x="266.6212121212121" y="389.66666666666674" as="sourcePoint" />
            <mxPoint x="299.1969696969697" y="353" as="targetPoint" />
          </mxGeometry>
        </mxCell>
        <mxCell id="DiaGZn70FkOACVAMZfuO-136" value="" style="endArrow=classic;html=1;rounded=0;entryX=0;entryY=0;entryDx=0;entryDy=0;exitX=1;exitY=1;exitDx=0;exitDy=0;" parent="1" source="DiaGZn70FkOACVAMZfuO-124" target="DiaGZn70FkOACVAMZfuO-125" edge="1">
          <mxGeometry width="50" height="50" relative="1" as="geometry">
            <mxPoint x="303.30434782608694" y="309" as="sourcePoint" />
            <mxPoint x="326.67391304347825" y="285.0869565217391" as="targetPoint" />
          </mxGeometry>
        </mxCell>
        <mxCell id="DiaGZn70FkOACVAMZfuO-138" value="" style="verticalAlign=top;align=left;spacingTop=8;spacingLeft=2;spacingRight=12;shape=cube;size=10;direction=south;fontStyle=4;html=1;whiteSpace=wrap;" parent="1" vertex="1">
          <mxGeometry x="600" y="288" width="120" height="120" as="geometry" />
        </mxCell>
        <mxCell id="DiaGZn70FkOACVAMZfuO-139" value="&lt;span style=&quot;color: rgb(0, 0, 0); font-style: normal; font-variant-ligatures: normal; font-variant-caps: normal; font-weight: 400; letter-spacing: normal; orphans: 2; text-indent: 0px; text-transform: none; widows: 2; word-spacing: 0px; -webkit-text-stroke-width: 0px; white-space: normal; background-color: rgb(251, 251, 251); float: none; display: inline !important;&quot;&gt;&lt;font style=&quot;font-size: 15px;&quot; face=&quot;Times New Roman&quot;&gt;alpha = 0.05&lt;/font&gt;&lt;/span&gt;&lt;div style=&quot;forced-color-adjust: none; color: rgb(0, 0, 0); font-style: normal; font-variant-ligatures: normal; font-variant-caps: normal; font-weight: 400; letter-spacing: normal; orphans: 2; text-indent: 0px; text-transform: none; widows: 2; word-spacing: 0px; -webkit-text-stroke-width: 0px; white-space: normal; background-color: rgb(251, 251, 251); text-decoration-thickness: initial; text-decoration-style: initial; text-decoration-color: initial;&quot;&gt;&lt;font style=&quot;font-size: 15px;&quot; face=&quot;Times New Roman&quot;&gt;threshold = 0.8&lt;/font&gt;&lt;/div&gt;&lt;div style=&quot;forced-color-adjust: none; color: rgb(0, 0, 0); font-style: normal; font-variant-ligatures: normal; font-variant-caps: normal; font-weight: 400; letter-spacing: normal; orphans: 2; text-indent: 0px; text-transform: none; widows: 2; word-spacing: 0px; -webkit-text-stroke-width: 0px; white-space: normal; background-color: rgb(251, 251, 251); text-decoration-thickness: initial; text-decoration-style: initial; text-decoration-color: initial;&quot;&gt;&lt;span style=&quot;font-family: &amp;quot;Times New Roman&amp;quot;; font-size: 15px;&quot;&gt;CItest = RCoT&lt;/span&gt;&lt;/div&gt;" style="text;whiteSpace=wrap;html=1;align=center;" parent="1" vertex="1">
          <mxGeometry x="608" y="236" width="110" height="50" as="geometry" />
        </mxCell>
        <mxCell id="DiaGZn70FkOACVAMZfuO-140" value="" style="ellipse;whiteSpace=wrap;html=1;aspect=fixed;" parent="1" vertex="1">
          <mxGeometry x="604.5" y="365.66666666666663" width="19.691972195720325" height="19.691972195720325" as="geometry" />
        </mxCell>
        <mxCell id="DiaGZn70FkOACVAMZfuO-141" value="" style="ellipse;whiteSpace=wrap;html=1;aspect=fixed;" parent="1" vertex="1">
          <mxGeometry x="650.1060606060606" y="343.66666666666663" width="19.691972195720325" height="19.691972195720325" as="geometry" />
        </mxCell>
        <mxCell id="DiaGZn70FkOACVAMZfuO-142" value="" style="ellipse;whiteSpace=wrap;html=1;aspect=fixed;" parent="1" vertex="1">
          <mxGeometry x="681.6212648221344" y="378.73753623188406" width="19.691972195720325" height="19.691972195720325" as="geometry" />
        </mxCell>
        <mxCell id="DiaGZn70FkOACVAMZfuO-143" value="" style="ellipse;whiteSpace=wrap;html=1;aspect=fixed;" parent="1" vertex="1">
          <mxGeometry x="617.530303030303" y="307" width="19.691972195720325" height="19.691972195720325" as="geometry" />
        </mxCell>
        <mxCell id="DiaGZn70FkOACVAMZfuO-144" value="" style="edgeStyle=orthogonalEdgeStyle;rounded=0;orthogonalLoop=1;jettySize=auto;html=1;" parent="1" source="DiaGZn70FkOACVAMZfuO-145" target="DiaGZn70FkOACVAMZfuO-143" edge="1">
          <mxGeometry relative="1" as="geometry" />
        </mxCell>
        <mxCell id="DiaGZn70FkOACVAMZfuO-145" value="" style="ellipse;whiteSpace=wrap;html=1;aspect=fixed;" parent="1" vertex="1">
          <mxGeometry x="685.939393939394" y="307" width="19.691972195720325" height="19.691972195720325" as="geometry" />
        </mxCell>
        <mxCell id="DiaGZn70FkOACVAMZfuO-146" value="" style="endArrow=none;html=1;rounded=0;exitX=1;exitY=0;exitDx=0;exitDy=0;entryX=0;entryY=1;entryDx=0;entryDy=0;startArrow=classic;startFill=1;endFill=0;" parent="1" source="DiaGZn70FkOACVAMZfuO-141" target="DiaGZn70FkOACVAMZfuO-145" edge="1">
          <mxGeometry width="50" height="50" relative="1" as="geometry">
            <mxPoint x="663.1363636363636" y="380.33333333333337" as="sourcePoint" />
            <mxPoint x="695.7121212121212" y="343.66666666666663" as="targetPoint" />
          </mxGeometry>
        </mxCell>
        <mxCell id="DiaGZn70FkOACVAMZfuO-148" value="" style="endArrow=classic;html=1;rounded=0;entryX=1;entryY=1;entryDx=0;entryDy=0;exitX=0;exitY=0.5;exitDx=0;exitDy=0;startArrow=classic;startFill=1;" parent="1" source="DiaGZn70FkOACVAMZfuO-142" target="DiaGZn70FkOACVAMZfuO-140" edge="1">
          <mxGeometry width="50" height="50" relative="1" as="geometry">
            <mxPoint x="656.6212121212121" y="387.66666666666663" as="sourcePoint" />
            <mxPoint x="689.1969696969697" y="351" as="targetPoint" />
          </mxGeometry>
        </mxCell>
        <mxCell id="DiaGZn70FkOACVAMZfuO-149" value="" style="endArrow=classic;html=1;rounded=0;exitX=0.975;exitY=0.325;exitDx=0;exitDy=0;entryX=0;entryY=0.5;entryDx=0;entryDy=0;exitPerimeter=0;" parent="1" source="DiaGZn70FkOACVAMZfuO-140" target="DiaGZn70FkOACVAMZfuO-141" edge="1">
          <mxGeometry width="50" height="50" relative="1" as="geometry">
            <mxPoint x="656.6212121212121" y="387.66666666666663" as="sourcePoint" />
            <mxPoint x="689.1969696969697" y="351" as="targetPoint" />
          </mxGeometry>
        </mxCell>
        <mxCell id="DiaGZn70FkOACVAMZfuO-150" value="" style="endArrow=none;html=1;rounded=0;entryX=1;entryY=0.5;entryDx=0;entryDy=0;exitX=0;exitY=0.5;exitDx=0;exitDy=0;startArrow=classic;startFill=1;endFill=0;" parent="1" source="DiaGZn70FkOACVAMZfuO-145" target="DiaGZn70FkOACVAMZfuO-143" edge="1">
          <mxGeometry width="50" height="50" relative="1" as="geometry">
            <mxPoint x="656.6212121212121" y="387.66666666666663" as="sourcePoint" />
            <mxPoint x="689.1969696969697" y="351" as="targetPoint" />
          </mxGeometry>
        </mxCell>
        <mxCell id="DiaGZn70FkOACVAMZfuO-151" value="" style="endArrow=classic;html=1;rounded=0;exitX=0.5;exitY=1;exitDx=0;exitDy=0;entryX=0.5;entryY=0;entryDx=0;entryDy=0;" parent="1" source="DiaGZn70FkOACVAMZfuO-143" target="DiaGZn70FkOACVAMZfuO-140" edge="1">
          <mxGeometry width="50" height="50" relative="1" as="geometry">
            <mxPoint x="656.6212121212121" y="387.66666666666663" as="sourcePoint" />
            <mxPoint x="689.1969696969697" y="351" as="targetPoint" />
          </mxGeometry>
        </mxCell>
        <mxCell id="DiaGZn70FkOACVAMZfuO-155" value="" style="verticalAlign=top;align=left;spacingTop=8;spacingLeft=2;spacingRight=12;shape=cube;size=10;direction=south;fontStyle=4;html=1;whiteSpace=wrap;" parent="1" vertex="1">
          <mxGeometry x="360" y="288" width="120" height="120" as="geometry" />
        </mxCell>
        <mxCell id="DiaGZn70FkOACVAMZfuO-156" value="&lt;span style=&quot;color: rgb(0, 0, 0); font-style: normal; font-variant-ligatures: normal; font-variant-caps: normal; font-weight: 400; letter-spacing: normal; orphans: 2; text-indent: 0px; text-transform: none; widows: 2; word-spacing: 0px; -webkit-text-stroke-width: 0px; white-space: normal; background-color: rgb(251, 251, 251); float: none; display: inline !important;&quot;&gt;&lt;font style=&quot;font-size: 15px;&quot; face=&quot;Times New Roman&quot;&gt;alpha = 0.01&lt;/font&gt;&lt;/span&gt;&lt;div style=&quot;forced-color-adjust: none; color: rgb(0, 0, 0); font-style: normal; font-variant-ligatures: normal; font-variant-caps: normal; font-weight: 400; letter-spacing: normal; orphans: 2; text-indent: 0px; text-transform: none; widows: 2; word-spacing: 0px; -webkit-text-stroke-width: 0px; white-space: normal; background-color: rgb(251, 251, 251); text-decoration-thickness: initial; text-decoration-style: initial; text-decoration-color: initial;&quot;&gt;&lt;font style=&quot;font-size: 15px;&quot; face=&quot;Times New Roman&quot;&gt;threshold = 0.7&lt;/font&gt;&lt;/div&gt;&lt;div style=&quot;forced-color-adjust: none; color: rgb(0, 0, 0); font-style: normal; font-variant-ligatures: normal; font-variant-caps: normal; font-weight: 400; letter-spacing: normal; orphans: 2; text-indent: 0px; text-transform: none; widows: 2; word-spacing: 0px; -webkit-text-stroke-width: 0px; white-space: normal; background-color: rgb(251, 251, 251); text-decoration-thickness: initial; text-decoration-style: initial; text-decoration-color: initial;&quot;&gt;&lt;span style=&quot;font-family: &amp;quot;Times New Roman&amp;quot;; font-size: 15px;&quot;&gt;CItest = Gauss&lt;/span&gt;&lt;font style=&quot;font-size: 15px;&quot; face=&quot;Times New Roman&quot;&gt;&lt;/font&gt;&lt;/div&gt;" style="text;whiteSpace=wrap;html=1;align=center;" parent="1" vertex="1">
          <mxGeometry x="370" y="236.00000000000003" width="110" height="50" as="geometry" />
        </mxCell>
        <mxCell id="DiaGZn70FkOACVAMZfuO-157" value="" style="ellipse;whiteSpace=wrap;html=1;aspect=fixed;" parent="1" vertex="1">
          <mxGeometry x="364.5" y="365.66666666666663" width="19.691972195720325" height="19.691972195720325" as="geometry" />
        </mxCell>
        <mxCell id="DiaGZn70FkOACVAMZfuO-158" value="" style="ellipse;whiteSpace=wrap;html=1;aspect=fixed;" parent="1" vertex="1">
          <mxGeometry x="410.1060606060606" y="343.66666666666663" width="19.691972195720325" height="19.691972195720325" as="geometry" />
        </mxCell>
        <mxCell id="DiaGZn70FkOACVAMZfuO-159" value="" style="ellipse;whiteSpace=wrap;html=1;aspect=fixed;" parent="1" vertex="1">
          <mxGeometry x="441.62126482213444" y="378.73753623188406" width="19.691972195720325" height="19.691972195720325" as="geometry" />
        </mxCell>
        <mxCell id="DiaGZn70FkOACVAMZfuO-160" value="" style="ellipse;whiteSpace=wrap;html=1;aspect=fixed;" parent="1" vertex="1">
          <mxGeometry x="377.530303030303" y="307" width="19.691972195720325" height="19.691972195720325" as="geometry" />
        </mxCell>
        <mxCell id="DiaGZn70FkOACVAMZfuO-161" value="" style="edgeStyle=orthogonalEdgeStyle;rounded=0;orthogonalLoop=1;jettySize=auto;html=1;" parent="1" source="DiaGZn70FkOACVAMZfuO-162" target="DiaGZn70FkOACVAMZfuO-160" edge="1">
          <mxGeometry relative="1" as="geometry" />
        </mxCell>
        <mxCell id="DiaGZn70FkOACVAMZfuO-162" value="" style="ellipse;whiteSpace=wrap;html=1;aspect=fixed;" parent="1" vertex="1">
          <mxGeometry x="445.939393939394" y="307" width="19.691972195720325" height="19.691972195720325" as="geometry" />
        </mxCell>
        <mxCell id="DiaGZn70FkOACVAMZfuO-165" value="" style="endArrow=classic;html=1;rounded=0;entryX=1;entryY=1;entryDx=0;entryDy=0;exitX=0;exitY=0.5;exitDx=0;exitDy=0;" parent="1" source="DiaGZn70FkOACVAMZfuO-159" target="DiaGZn70FkOACVAMZfuO-157" edge="1">
          <mxGeometry width="50" height="50" relative="1" as="geometry">
            <mxPoint x="416.6212121212121" y="387.66666666666663" as="sourcePoint" />
            <mxPoint x="449.19696969696975" y="351" as="targetPoint" />
          </mxGeometry>
        </mxCell>
        <mxCell id="DiaGZn70FkOACVAMZfuO-168" value="" style="endArrow=classic;html=1;rounded=0;exitX=0.5;exitY=1;exitDx=0;exitDy=0;entryX=0.5;entryY=0;entryDx=0;entryDy=0;" parent="1" source="DiaGZn70FkOACVAMZfuO-160" target="DiaGZn70FkOACVAMZfuO-157" edge="1">
          <mxGeometry width="50" height="50" relative="1" as="geometry">
            <mxPoint x="416.6212121212121" y="387.66666666666663" as="sourcePoint" />
            <mxPoint x="449.19696969696975" y="351" as="targetPoint" />
          </mxGeometry>
        </mxCell>
        <mxCell id="DiaGZn70FkOACVAMZfuO-169" value="" style="endArrow=classic;html=1;rounded=0;exitX=1;exitY=1;exitDx=0;exitDy=0;entryX=0;entryY=0;entryDx=0;entryDy=0;" parent="1" source="DiaGZn70FkOACVAMZfuO-160" target="DiaGZn70FkOACVAMZfuO-158" edge="1">
          <mxGeometry width="50" height="50" relative="1" as="geometry">
            <mxPoint x="416.6212121212121" y="387.66666666666663" as="sourcePoint" />
            <mxPoint x="449.19696969696975" y="351" as="targetPoint" />
          </mxGeometry>
        </mxCell>
        <mxCell id="DiaGZn70FkOACVAMZfuO-170" value="" style="endArrow=classic;html=1;rounded=0;entryX=0;entryY=0;entryDx=0;entryDy=0;exitX=1;exitY=1;exitDx=0;exitDy=0;" parent="1" source="DiaGZn70FkOACVAMZfuO-158" target="DiaGZn70FkOACVAMZfuO-159" edge="1">
          <mxGeometry width="50" height="50" relative="1" as="geometry">
            <mxPoint x="453.304347826087" y="307" as="sourcePoint" />
            <mxPoint x="476.67391304347825" y="283.0869565217391" as="targetPoint" />
          </mxGeometry>
        </mxCell>
        <mxCell id="DiaGZn70FkOACVAMZfuO-171" value="" style="endArrow=none;dashed=1;html=1;dashPattern=1 3;strokeWidth=3;rounded=0;" parent="1" edge="1">
          <mxGeometry width="50" height="50" relative="1" as="geometry">
            <mxPoint x="520" y="340" as="sourcePoint" />
            <mxPoint x="560" y="340" as="targetPoint" />
          </mxGeometry>
        </mxCell>
        <mxCell id="DiaGZn70FkOACVAMZfuO-172" value="" style="shape=curlyBracket;whiteSpace=wrap;html=1;rounded=1;flipH=1;labelPosition=right;verticalLabelPosition=middle;align=left;verticalAlign=middle;size=0.5;rotation=90;strokeWidth=1;" parent="1" vertex="1">
          <mxGeometry x="365.86" y="131.63" width="54.42" height="664.28" as="geometry" />
        </mxCell>
        <mxCell id="DiaGZn70FkOACVAMZfuO-176" value="" style="endArrow=classic;html=1;rounded=0;exitX=0.1;exitY=0.5;exitDx=0;exitDy=0;exitPerimeter=0;" parent="1" source="DiaGZn70FkOACVAMZfuO-172" edge="1">
          <mxGeometry relative="1" as="geometry">
            <mxPoint x="330" y="560" as="sourcePoint" />
            <mxPoint x="393" y="540" as="targetPoint" />
          </mxGeometry>
        </mxCell>
        <mxCell id="DiaGZn70FkOACVAMZfuO-195" value="&lt;span style=&quot;font-weight: 400;&quot;&gt;&lt;font face=&quot;Times New Roman&quot; style=&quot;font-size: 15px;&quot;&gt;Most Frequent&amp;nbsp;&lt;/font&gt;&lt;/span&gt;&lt;div&gt;&lt;span style=&quot;font-weight: 400;&quot;&gt;&lt;font face=&quot;Times New Roman&quot; style=&quot;font-size: 15px;&quot;&gt;Edge Type&lt;/font&gt;&lt;/span&gt;&lt;/div&gt;" style="swimlane;whiteSpace=wrap;html=1;startSize=40;" parent="1" vertex="1">
          <mxGeometry x="318.73" y="550" width="148.69" height="150" as="geometry" />
        </mxCell>
        <mxCell id="DiaGZn70FkOACVAMZfuO-179" value="" style="group" parent="DiaGZn70FkOACVAMZfuO-195" vertex="1" connectable="0">
          <mxGeometry x="21.269999999999982" y="51" width="107.5" height="110" as="geometry" />
        </mxCell>
        <mxCell id="DiaGZn70FkOACVAMZfuO-180" value="" style="ellipse;whiteSpace=wrap;html=1;aspect=fixed;" parent="DiaGZn70FkOACVAMZfuO-179" vertex="1">
          <mxGeometry y="58.66666666666667" width="19.691972195720325" height="19.691972195720325" as="geometry" />
        </mxCell>
        <mxCell id="DiaGZn70FkOACVAMZfuO-181" value="" style="ellipse;whiteSpace=wrap;html=1;aspect=fixed;" parent="DiaGZn70FkOACVAMZfuO-179" vertex="1">
          <mxGeometry x="45.6060606060606" y="36.66666666666668" width="19.691972195720325" height="19.691972195720325" as="geometry" />
        </mxCell>
        <mxCell id="DiaGZn70FkOACVAMZfuO-182" value="" style="ellipse;whiteSpace=wrap;html=1;aspect=fixed;" parent="DiaGZn70FkOACVAMZfuO-179" vertex="1">
          <mxGeometry x="77.12126482213439" y="71.73753623188406" width="19.691972195720325" height="19.691972195720325" as="geometry" />
        </mxCell>
        <mxCell id="DiaGZn70FkOACVAMZfuO-183" value="" style="ellipse;whiteSpace=wrap;html=1;aspect=fixed;" parent="DiaGZn70FkOACVAMZfuO-179" vertex="1">
          <mxGeometry x="13.030303030303033" width="19.691972195720325" height="19.691972195720325" as="geometry" />
        </mxCell>
        <mxCell id="DiaGZn70FkOACVAMZfuO-184" value="" style="edgeStyle=orthogonalEdgeStyle;rounded=0;orthogonalLoop=1;jettySize=auto;html=1;" parent="DiaGZn70FkOACVAMZfuO-179" source="DiaGZn70FkOACVAMZfuO-185" target="DiaGZn70FkOACVAMZfuO-183" edge="1">
          <mxGeometry relative="1" as="geometry" />
        </mxCell>
        <mxCell id="DiaGZn70FkOACVAMZfuO-185" value="" style="ellipse;whiteSpace=wrap;html=1;aspect=fixed;" parent="DiaGZn70FkOACVAMZfuO-179" vertex="1">
          <mxGeometry x="81.43939393939395" width="19.691972195720325" height="19.691972195720325" as="geometry" />
        </mxCell>
        <mxCell id="DiaGZn70FkOACVAMZfuO-186" value="" style="endArrow=none;html=1;rounded=0;exitX=1;exitY=0;exitDx=0;exitDy=0;entryX=0;entryY=1;entryDx=0;entryDy=0;startArrow=classic;startFill=1;endFill=0;" parent="DiaGZn70FkOACVAMZfuO-179" source="DiaGZn70FkOACVAMZfuO-181" target="DiaGZn70FkOACVAMZfuO-185" edge="1">
          <mxGeometry width="50" height="50" relative="1" as="geometry">
            <mxPoint x="58.63636363636364" y="73.33333333333336" as="sourcePoint" />
            <mxPoint x="91.2121212121212" y="36.66666666666668" as="targetPoint" />
          </mxGeometry>
        </mxCell>
        <mxCell id="DiaGZn70FkOACVAMZfuO-188" value="" style="endArrow=classic;html=1;rounded=0;entryX=1;entryY=1;entryDx=0;entryDy=0;exitX=0;exitY=0.5;exitDx=0;exitDy=0;" parent="DiaGZn70FkOACVAMZfuO-179" source="DiaGZn70FkOACVAMZfuO-182" target="DiaGZn70FkOACVAMZfuO-180" edge="1">
          <mxGeometry width="50" height="50" relative="1" as="geometry">
            <mxPoint x="52.12121212121213" y="80.66666666666669" as="sourcePoint" />
            <mxPoint x="84.6969696969697" y="44" as="targetPoint" />
          </mxGeometry>
        </mxCell>
        <mxCell id="DiaGZn70FkOACVAMZfuO-189" value="" style="endArrow=classic;html=1;rounded=0;exitX=0.975;exitY=0.325;exitDx=0;exitDy=0;entryX=0;entryY=0.5;entryDx=0;entryDy=0;exitPerimeter=0;" parent="DiaGZn70FkOACVAMZfuO-179" source="DiaGZn70FkOACVAMZfuO-180" target="DiaGZn70FkOACVAMZfuO-181" edge="1">
          <mxGeometry width="50" height="50" relative="1" as="geometry">
            <mxPoint x="52.12121212121213" y="80.66666666666669" as="sourcePoint" />
            <mxPoint x="84.6969696969697" y="44" as="targetPoint" />
          </mxGeometry>
        </mxCell>
        <mxCell id="DiaGZn70FkOACVAMZfuO-190" value="" style="endArrow=classic;html=1;rounded=0;entryX=1;entryY=0.5;entryDx=0;entryDy=0;exitX=0;exitY=0.5;exitDx=0;exitDy=0;" parent="DiaGZn70FkOACVAMZfuO-179" source="DiaGZn70FkOACVAMZfuO-185" target="DiaGZn70FkOACVAMZfuO-183" edge="1">
          <mxGeometry width="50" height="50" relative="1" as="geometry">
            <mxPoint x="52.12121212121213" y="80.66666666666669" as="sourcePoint" />
            <mxPoint x="84.6969696969697" y="44" as="targetPoint" />
          </mxGeometry>
        </mxCell>
        <mxCell id="DiaGZn70FkOACVAMZfuO-191" value="" style="endArrow=classic;html=1;rounded=0;exitX=0.5;exitY=1;exitDx=0;exitDy=0;entryX=0.5;entryY=0;entryDx=0;entryDy=0;" parent="DiaGZn70FkOACVAMZfuO-179" source="DiaGZn70FkOACVAMZfuO-183" target="DiaGZn70FkOACVAMZfuO-180" edge="1">
          <mxGeometry width="50" height="50" relative="1" as="geometry">
            <mxPoint x="52.12121212121213" y="80.66666666666669" as="sourcePoint" />
            <mxPoint x="84.6969696969697" y="44" as="targetPoint" />
          </mxGeometry>
        </mxCell>
        <mxCell id="DiaGZn70FkOACVAMZfuO-192" value="" style="endArrow=classic;html=1;rounded=0;exitX=1;exitY=1;exitDx=0;exitDy=0;entryX=0;entryY=0;entryDx=0;entryDy=0;" parent="DiaGZn70FkOACVAMZfuO-179" source="DiaGZn70FkOACVAMZfuO-183" target="DiaGZn70FkOACVAMZfuO-181" edge="1">
          <mxGeometry width="50" height="50" relative="1" as="geometry">
            <mxPoint x="52.12121212121213" y="80.66666666666669" as="sourcePoint" />
            <mxPoint x="84.6969696969697" y="44" as="targetPoint" />
          </mxGeometry>
        </mxCell>
        <mxCell id="DiaGZn70FkOACVAMZfuO-193" value="" style="endArrow=classic;html=1;rounded=0;entryX=0;entryY=0;entryDx=0;entryDy=0;exitX=1;exitY=1;exitDx=0;exitDy=0;" parent="DiaGZn70FkOACVAMZfuO-179" source="DiaGZn70FkOACVAMZfuO-181" target="DiaGZn70FkOACVAMZfuO-182" edge="1">
          <mxGeometry width="50" height="50" relative="1" as="geometry">
            <mxPoint x="88.80434782608695" as="sourcePoint" />
            <mxPoint x="112.17391304347828" y="-23.91304347826087" as="targetPoint" />
          </mxGeometry>
        </mxCell>
        <mxCell id="DiaGZn70FkOACVAMZfuO-197" value="&lt;font face=&quot;Times New Roman&quot; style=&quot;font-size: 18px;&quot;&gt;&lt;b style=&quot;&quot;&gt;Step 1. Bootstrapping&amp;nbsp;&lt;/b&gt;&lt;/font&gt;&lt;div&gt;&lt;font face=&quot;Times New Roman&quot; style=&quot;font-size: 15px;&quot;&gt;&lt;b&gt;&lt;br&gt;&lt;/b&gt;&lt;/font&gt;&lt;/div&gt;" style="text;html=1;align=center;verticalAlign=middle;resizable=0;points=[];autosize=1;strokeColor=none;fillColor=none;" parent="1" vertex="1">
          <mxGeometry x="298.08000000000004" y="30" width="190" height="50" as="geometry" />
        </mxCell>
        <mxCell id="TTcwpSpZDTw9PUmX1xNd-10" style="edgeStyle=orthogonalEdgeStyle;rounded=0;orthogonalLoop=1;jettySize=auto;html=1;exitX=0.5;exitY=1;exitDx=0;exitDy=0;entryX=0.5;entryY=0;entryDx=0;entryDy=0;" parent="1" source="DiaGZn70FkOACVAMZfuO-198" target="DiaGZn70FkOACVAMZfuO-2" edge="1">
          <mxGeometry relative="1" as="geometry" />
        </mxCell>
        <mxCell id="DiaGZn70FkOACVAMZfuO-198" value="&lt;font style=&quot;font-size: 15px;&quot; face=&quot;Times New Roman&quot;&gt;bootstrap sample 1&lt;/font&gt;" style="swimlane;whiteSpace=wrap;html=1;startSize=50;" parent="1" vertex="1">
          <mxGeometry x="189.53" y="70" width="100" height="80" as="geometry" />
        </mxCell>
        <mxCell id="DiaGZn70FkOACVAMZfuO-199" value="&lt;font style=&quot;font-size: 15px;&quot; face=&quot;Times New Roman&quot;&gt;n = 21,628&lt;/font&gt;" style="text;html=1;align=center;verticalAlign=middle;resizable=0;points=[];autosize=1;strokeColor=none;fillColor=none;" parent="DiaGZn70FkOACVAMZfuO-198" vertex="1">
          <mxGeometry x="5.000000000000014" y="50.00000000000001" width="90" height="30" as="geometry" />
        </mxCell>
        <mxCell id="DiaGZn70FkOACVAMZfuO-219" value="" style="endArrow=none;dashed=1;html=1;dashPattern=1 3;strokeWidth=3;rounded=0;" parent="1" edge="1">
          <mxGeometry width="50" height="50" relative="1" as="geometry">
            <mxPoint x="435.79" y="109.28999999999999" as="sourcePoint" />
            <mxPoint x="475.79" y="109.28999999999999" as="targetPoint" />
          </mxGeometry>
        </mxCell>
        <mxCell id="DiaGZn70FkOACVAMZfuO-225" value="&lt;font face=&quot;Times New Roman&quot; style=&quot;forced-color-adjust: none; color: rgb(0, 0, 0); font-style: normal; font-variant-ligatures: normal; font-variant-caps: normal; font-weight: 400; letter-spacing: normal; orphans: 2; text-align: center; text-indent: 0px; text-transform: none; widows: 2; word-spacing: 0px; -webkit-text-stroke-width: 0px; white-space: nowrap; background-color: rgb(251, 251, 251); text-decoration-thickness: initial; text-decoration-style: initial; text-decoration-color: initial; font-size: 18px;&quot;&gt;&lt;b style=&quot;forced-color-adjust: none;&quot;&gt;Step 2. Causal graph estimation given specific conditions&lt;/b&gt;&lt;/font&gt;" style="text;whiteSpace=wrap;html=1;" parent="1" vertex="1">
          <mxGeometry x="199.5" y="210" width="441" height="50" as="geometry" />
        </mxCell>
        <mxCell id="DiaGZn70FkOACVAMZfuO-226" value="&lt;font face=&quot;Times New Roman&quot; style=&quot;forced-color-adjust: none; color: rgb(0, 0, 0); font-style: normal; font-variant-ligatures: normal; font-variant-caps: normal; font-weight: 400; letter-spacing: normal; orphans: 2; text-align: center; text-indent: 0px; text-transform: none; widows: 2; word-spacing: 0px; -webkit-text-stroke-width: 0px; white-space: nowrap; background-color: rgb(251, 251, 251); text-decoration-thickness: initial; text-decoration-style: initial; text-decoration-color: initial; font-size: 18px;&quot;&gt;&lt;b style=&quot;forced-color-adjust: none;&quot;&gt;Step 3. Summarization&amp;nbsp;&lt;/b&gt;&lt;/font&gt;" style="text;whiteSpace=wrap;html=1;" parent="1" vertex="1">
          <mxGeometry x="298.08" y="485" width="190" height="50" as="geometry" />
        </mxCell>
        <mxCell id="TTcwpSpZDTw9PUmX1xNd-11" style="edgeStyle=orthogonalEdgeStyle;rounded=0;orthogonalLoop=1;jettySize=auto;html=1;exitX=0.5;exitY=1;exitDx=0;exitDy=0;" parent="1" source="TTcwpSpZDTw9PUmX1xNd-1" target="DiaGZn70FkOACVAMZfuO-2" edge="1">
          <mxGeometry relative="1" as="geometry" />
        </mxCell>
        <mxCell id="TTcwpSpZDTw9PUmX1xNd-1" value="&lt;font style=&quot;font-size: 15px;&quot; face=&quot;Times New Roman&quot;&gt;bootstrap sample 2&lt;/font&gt;" style="swimlane;whiteSpace=wrap;html=1;startSize=50;" parent="1" vertex="1">
          <mxGeometry x="315.63" y="70" width="100" height="80" as="geometry" />
        </mxCell>
        <mxCell id="TTcwpSpZDTw9PUmX1xNd-2" value="&lt;font style=&quot;font-size: 15px;&quot; face=&quot;Times New Roman&quot;&gt;n = 21,628&lt;/font&gt;" style="text;html=1;align=center;verticalAlign=middle;resizable=0;points=[];autosize=1;strokeColor=none;fillColor=none;" parent="TTcwpSpZDTw9PUmX1xNd-1" vertex="1">
          <mxGeometry x="5.000000000000014" y="50.00000000000001" width="90" height="30" as="geometry" />
        </mxCell>
        <mxCell id="TTcwpSpZDTw9PUmX1xNd-3" value="&lt;font style=&quot;font-size: 15px;&quot; face=&quot;Times New Roman&quot;&gt;bootstrap sample 100&lt;/font&gt;" style="swimlane;whiteSpace=wrap;html=1;startSize=50;" parent="1" vertex="1">
          <mxGeometry x="497.5" y="70" width="100" height="80" as="geometry" />
        </mxCell>
        <mxCell id="TTcwpSpZDTw9PUmX1xNd-4" value="&lt;font style=&quot;font-size: 15px;&quot; face=&quot;Times New Roman&quot;&gt;n = 21,628&lt;/font&gt;" style="text;html=1;align=center;verticalAlign=middle;resizable=0;points=[];autosize=1;strokeColor=none;fillColor=none;" parent="TTcwpSpZDTw9PUmX1xNd-3" vertex="1">
          <mxGeometry x="5.000000000000014" y="50.00000000000001" width="90" height="30" as="geometry" />
        </mxCell>
        <mxCell id="TTcwpSpZDTw9PUmX1xNd-16" style="edgeStyle=orthogonalEdgeStyle;rounded=0;orthogonalLoop=1;jettySize=auto;html=1;entryX=0.5;entryY=0;entryDx=0;entryDy=0;exitX=0.5;exitY=1;exitDx=0;exitDy=0;exitPerimeter=0;" parent="1" source="TTcwpSpZDTw9PUmX1xNd-4" target="DiaGZn70FkOACVAMZfuO-2" edge="1">
          <mxGeometry relative="1" as="geometry" />
        </mxCell>
        <mxCell id="UDdJKhotG0nYN_Htrioi-3" value="" style="endArrow=classic;html=1;rounded=0;entryX=1;entryY=0.5;entryDx=0;entryDy=0;exitX=0;exitY=0.5;exitDx=0;exitDy=0;" parent="1" edge="1">
          <mxGeometry width="50" height="50" relative="1" as="geometry">
            <mxPoint x="295.45" y="317.35" as="sourcePoint" />
            <mxPoint x="246.45" y="317.35" as="targetPoint" />
          </mxGeometry>
        </mxCell>
      </root>
    </mxGraphModel>
  </diagram>
</mxfile>
